<?xml version="1.0" standalone="no"?>
<!DOCTYPE svg PUBLIC "-//W3C//DTD SVG 20010904//EN"
 "http://www.w3.org/TR/2001/REC-SVG-20010904/DTD/svg10.dtd">
<svg version="1.0" xmlns="http://www.w3.org/2000/svg"
 width="512.000000pt" height="512.000000pt" viewBox="0 0 512.000000 512.000000"
 preserveAspectRatio="xMidYMid meet">
<metadata>
Created by potrace 1.11, written by Peter Selinger 2001-2013
</metadata>
<g transform="translate(0.000000,512.000000) scale(0.100000,-0.100000)"
fill="#000000" stroke="none">
<path d="M2439 4736 c-63 -25 -80 -36 -137 -88 -120 -108 -239 -316 -327 -568
-36 -104 -98 -333 -109 -403 -3 -20 -10 -56 -16 -79 -5 -24 -10 -53 -10 -65
l0 -23 726 0 726 0 -7 43 c-30 179 -106 452 -170 612 -55 135 -99 223 -164
321 -75 114 -156 194 -239 236 -86 43 -188 49 -273 14z"/>
<path d="M1860 4639 c-408 -153 -752 -427 -1000 -794 -45 -67 -180 -313 -180
-328 0 -4 200 -7 444 -7 l444 0 17 98 c72 413 184 735 342 990 25 40 44 75 42
77 -2 2 -51 -14 -109 -36z"/>
<path d="M3150 4673 c0 -4 25 -49 56 -100 76 -127 143 -281 197 -449 67 -207
75 -238 113 -419 2 -11 6 -31 9 -45 7 -31 11 -53 20 -107 l7 -43 444 0 c244 0
444 2 444 5 0 3 -24 54 -54 113 -193 384 -514 710 -896 909 -124 65 -340 151
-340 136z"/>
<path d="M597 3243 c-8 -14 -33 -128 -43 -193 -3 -19 -7 -40 -9 -47 -8 -23
-19 -180 -19 -268 0 -124 12 -270 30 -355 4 -19 8 -41 10 -49 11 -55 28 -118
34 -126 10 -12 910 -13 929 -1 6 4 10 15 7 24 -26 90 -27 768 -2 995 l3 27
-468 0 c-257 0 -470 -3 -472 -7z"/>
<path d="M1792 3233 c0 -10 -3 -65 -8 -123 -11 -131 -11 -639 0 -780 5 -58 9
-111 9 -117 0 -7 10 -13 21 -14 27 -1 1499 -1 1507 0 3 1 6 7 6 14 0 6 5 66 9
132 11 154 11 618 0 760 -5 61 -8 118 -8 128 1 16 -42 17 -768 17 -726 0 -769
-1 -768 -17z"/>
<path d="M3584 3233 c26 -86 26 -881 1 -1015 -3 -11 2 -18 13 -19 138 -7 916
-2 922 6 8 11 36 127 51 215 42 247 27 550 -39 795 l-8 30 -473 3 c-447 2
-472 1 -467 -15z"/>
<path d="M686 1933 c-3 -3 20 -53 50 -112 70 -137 78 -151 147 -249 246 -352
589 -619 974 -761 62 -22 115 -41 117 -41 2 0 -18 37 -46 83 -76 125 -193 382
-202 442 -1 8 -5 18 -9 21 -4 4 -7 17 -7 29 0 31 56 33 66 3 4 -15 8 -17 14
-8 4 7 13 9 19 6 6 -4 14 0 17 8 5 12 10 13 24 4 10 -7 16 -17 12 -23 -3 -5 3
-3 14 5 29 22 30 24 13 18 -9 -4 -22 -3 -29 2 -7 5 2 7 23 7 20 -1 33 -5 31
-9 -5 -8 10 -12 35 -9 8 2 10 -2 5 -10 -4 -8 -3 -10 5 -5 9 6 9 11 0 22 -6 8
-7 14 -2 14 10 0 21 -22 90 -182 15 -35 40 -85 55 -111 15 -26 28 -51 28 -55
0 -8 54 -85 98 -142 51 -65 117 -121 182 -153 57 -28 74 -32 150 -32 76 0 92
4 150 32 136 68 270 242 374 488 21 50 46 99 55 109 9 11 11 16 4 13 -7 -5 -9
0 -6 12 4 16 8 17 18 8 7 -7 12 -14 10 -17 -2 -3 8 -6 21 -6 15 -1 23 3 21 10
-2 6 -11 10 -20 8 -8 -1 -18 1 -21 6 -3 4 17 8 45 8 27 1 49 -3 49 -7 0 -4 -9
-6 -20 -4 -18 3 -19 1 -9 -18 16 -31 23 -36 15 -12 -5 16 -1 21 14 22 11 1 18
-2 16 -6 -3 -4 1 -8 9 -8 8 0 14 3 13 6 -2 19 3 31 13 31 6 0 8 -10 5 -22 -6
-22 -6 -22 5 -2 7 14 21 20 45 21 19 1 34 -3 34 -9 0 -5 -4 -6 -10 -3 -6 4 -7
-1 -3 -11 5 -14 8 -13 20 7 l14 24 -7 -24 c-3 -13 -7 -29 -9 -35 -1 -6 -5 -20
-9 -31 -5 -11 -13 -33 -18 -50 -43 -121 -126 -291 -194 -397 l-43 -67 49 15
c322 96 664 327 928 629 97 111 266 382 312 501 l8 21 -444 0 -444 0 -4 -31
c-3 -17 -9 -53 -13 -81 l-8 -50 -130 -1 c-72 0 -133 1 -136 3 -3 1 0 30 7 65
8 35 14 70 14 79 0 15 -60 17 -720 17 -547 -1 -720 -4 -720 -12 0 -7 5 -39 11
-72 6 -32 12 -63 12 -68 3 -14 -252 -14 -262 -1 -4 5 -13 42 -20 81 l-12 72
-439 0 c-242 0 -441 -3 -444 -5z m1134 -573 c0 -5 -2 -10 -4 -10 -3 0 -8 5
-11 10 -3 6 -1 10 4 10 6 0 11 -4 11 -10z m1470 0 c0 -5 -2 -10 -4 -10 -3 0
-8 5 -11 10 -3 6 -1 10 4 10 6 0 11 -4 11 -10z"/>
<path d="M1730 1346 c7 -7 13 -7 20 0 6 6 3 10 -10 10 -13 0 -16 -4 -10 -10z"/>
<path d="M3348 1347 c7 -8 8 -18 4 -22 -4 -5 -1 -5 6 -1 17 10 15 23 -4 30
-13 5 -14 4 -6 -7z"/>
<path d="M1830 1329 c0 -5 5 -7 10 -4 6 3 10 8 10 11 0 2 -4 4 -10 4 -5 0 -10
-5 -10 -11z"/>
<path d="M4515 871 c-71 -32 -105 -93 -105 -186 0 -47 -3 -55 -19 -55 -10 0
-29 -8 -42 -19 -22 -18 -23 -25 -24 -147 -1 -123 5 -160 29 -176 6 -4 113 -8
239 -8 287 0 267 -13 267 175 0 125 -1 136 -22 155 -12 11 -31 20 -43 20 -19
0 -21 5 -20 48 1 26 -2 60 -6 76 -31 109 -150 165 -254 117z m141 -118 c7 -10
14 -42 14 -70 l0 -53 -81 0 -82 0 6 56 c6 59 19 82 52 94 26 10 74 -5 91 -27z"/>
<path d="M1368 578 c-4 -11 -3 -186 1 -210 0 -5 7 -8 14 -8 8 0 12 17 12 53
l0 52 51 3 50 3 -1 -45 c-1 -25 1 -50 5 -57 18 -28 25 6 24 103 -2 128 -1 123
-18 108 -9 -7 -14 -25 -11 -46 1 -19 0 -34 -4 -35 -29 -5 -78 -5 -86 0 -5 3
-10 24 -11 45 0 39 -17 60 -26 34z"/>
<path d="M1938 573 c-8 -10 -3 -13 26 -13 l36 0 0 -100 c0 -93 8 -118 26 -88
5 7 7 52 7 100 l-1 88 35 0 c23 0 33 4 31 12 -6 18 -145 18 -160 1z"/>
<path d="M2485 581 c-10 -10 9 -21 36 -21 32 0 31 7 31 -123 0 -66 2 -78 16
-75 13 2 16 19 16 98 l1 95 33 3 c17 2 32 9 32 16 0 8 -23 12 -81 12 -44 -1
-82 -3 -84 -5z"/>
<path d="M3064 579 c-3 -5 -5 -39 -6 -76 -1 -129 1 -143 17 -143 11 0 15 12
15 45 0 45 0 45 35 45 68 0 105 73 60 119 -15 15 -113 23 -121 10z m100 -35
c9 -8 16 -19 16 -23 0 -19 -28 -42 -55 -44 -29 -2 -30 0 -33 41 -3 41 -2 42
27 42 16 0 37 -7 45 -16z"/>
<path d="M3633 573 c-44 -30 -27 -77 39 -108 34 -16 43 -26 43 -45 0 -20 -6
-26 -27 -28 -15 -2 -36 2 -48 8 -26 14 -46 4 -29 -16 16 -19 76 -28 105 -15
29 13 44 48 34 76 -4 11 -29 31 -56 45 -34 17 -49 31 -49 45 0 18 6 20 53 18
57 -3 67 7 27 25 -35 16 -65 14 -92 -5z"/>
</g>
</svg>
